<svg xmlns="http://www.w3.org/2000/svg" viewBox="0 0 900 900">
<defs><radialGradient id="bg" cx="50%" cy="35%" r="65%"><stop offset="0" stop-color="#6fa7ff" stop-opacity=".45"/><stop offset=".45" stop-color="#1b1d24"/><stop offset="1" stop-color="#050505"/></radialGradient><linearGradient id="glass" x1="0" y1="0" x2="1" y2="1"><stop stop-color="#fff" stop-opacity=".92"/><stop offset=".45" stop-color="#6fa7ff" stop-opacity=".75"/><stop offset="1" stop-color="#111" stop-opacity=".95"/></linearGradient><filter id="s" x="-50%" y="-50%" width="200%" height="200%"><feDropShadow dx="0" dy="42" stdDeviation="34" flood-color="#000" flood-opacity=".65"/></filter></defs>
<rect width="900" height="900" rx="70" fill="url(#bg)"/><circle cx="725" cy="170" r="190" fill="#6fa7ff" opacity=".18" filter="url(#s)"/><circle cx="175" cy="740" r="240" fill="#6fa7ff" opacity=".12"/>
<g filter="url(#s)" transform="rotate(-8 450 450)"><rect x="295" y="115" width="310" height="670" rx="60" fill="#0b0b0e"/><rect x="315" y="135" width="270" height="630" rx="45" fill="url(#glass)"/><rect x="400" y="154" width="100" height="28" rx="14" fill="#080808" opacity=".9"/><circle cx="375" cy="215" r="38" fill="#151515"/><circle cx="450" cy="215" r="38" fill="#151515"/><circle cx="410" cy="288" r="38" fill="#151515"/><circle cx="375" cy="215" r="25" fill="#0e1524"/><circle cx="450" cy="215" r="25" fill="#0e1524"/><circle cx="410" cy="288" r="25" fill="#0e1524"/><path d="M338 520c80-120 178-120 227 0v245H338z" fill="#fff" opacity=".13"/></g><text x="60" y="790" font-family="Arial, Helvetica, sans-serif" font-size="46" font-weight="700" fill="#fff">iPhone 16</text><text x="60" y="840" font-family="Arial, Helvetica, sans-serif" font-size="24" fill="#ffffff99">Ultramarine</text></svg>